<mxfile host="Electron" agent="Mozilla/5.0 (Windows NT 10.0; Win64; x64) AppleWebKit/537.36 (KHTML, like Gecko) draw.io/27.0.9 Chrome/134.0.6998.205 Electron/35.4.0 Safari/537.36" version="27.0.9">
  <diagram name="第 1 页" id="ogAzCB06w6HoRDOkrQTJ">
    <mxGraphModel dx="616" dy="430" grid="1" gridSize="10" guides="1" tooltips="1" connect="1" arrows="1" fold="1" page="1" pageScale="1" pageWidth="827" pageHeight="1169" math="0" shadow="0">
      <root>
        <mxCell id="0" />
        <mxCell id="1" parent="0" />
        <mxCell id="P0n2XWaB3SjacAvsnvnd-1" value="k" style="rounded=0;whiteSpace=wrap;html=1;fillColor=#d5e8d4;strokeColor=#82b366;" vertex="1" parent="1">
          <mxGeometry x="80" y="80" width="40" height="30" as="geometry" />
        </mxCell>
        <mxCell id="P0n2XWaB3SjacAvsnvnd-2" value="k+m" style="rounded=0;whiteSpace=wrap;html=1;" vertex="1" parent="1">
          <mxGeometry x="240" y="80" width="40" height="30" as="geometry" />
        </mxCell>
        <mxCell id="P0n2XWaB3SjacAvsnvnd-3" value="k+1" style="rounded=0;whiteSpace=wrap;html=1;fillColor=#d5e8d4;strokeColor=#82b366;" vertex="1" parent="1">
          <mxGeometry x="120" y="80" width="40" height="30" as="geometry" />
        </mxCell>
        <mxCell id="P0n2XWaB3SjacAvsnvnd-4" value="...&amp;nbsp;" style="text;html=1;align=center;verticalAlign=middle;resizable=0;points=[];autosize=1;strokeColor=none;fillColor=none;" vertex="1" parent="1">
          <mxGeometry x="280" y="80" width="40" height="30" as="geometry" />
        </mxCell>
        <mxCell id="P0n2XWaB3SjacAvsnvnd-5" value="...&amp;nbsp;" style="text;html=1;align=center;verticalAlign=middle;resizable=0;points=[];autosize=1;strokeColor=none;fillColor=none;" vertex="1" parent="1">
          <mxGeometry x="200" y="80" width="40" height="30" as="geometry" />
        </mxCell>
        <mxCell id="P0n2XWaB3SjacAvsnvnd-6" value="...&amp;nbsp;" style="text;html=1;align=center;verticalAlign=middle;resizable=0;points=[];autosize=1;strokeColor=none;fillColor=none;" vertex="1" parent="1">
          <mxGeometry x="40" y="80" width="40" height="30" as="geometry" />
        </mxCell>
        <mxCell id="P0n2XWaB3SjacAvsnvnd-7" value="k+2" style="rounded=0;whiteSpace=wrap;html=1;" vertex="1" parent="1">
          <mxGeometry x="160" y="80" width="40" height="30" as="geometry" />
        </mxCell>
        <mxCell id="P0n2XWaB3SjacAvsnvnd-8" value="flash_buffer_head = k&lt;div&gt;dirty_falsh_buffer_len=2&lt;/div&gt;" style="text;html=1;align=center;verticalAlign=middle;resizable=0;points=[];autosize=1;strokeColor=none;fillColor=none;" vertex="1" parent="1">
          <mxGeometry x="50" y="10" width="150" height="40" as="geometry" />
        </mxCell>
        <mxCell id="P0n2XWaB3SjacAvsnvnd-10" value="" style="endArrow=classic;html=1;rounded=0;exitX=0.449;exitY=1.017;exitDx=0;exitDy=0;exitPerimeter=0;entryX=1.017;entryY=-0.089;entryDx=0;entryDy=0;entryPerimeter=0;" edge="1" parent="1" source="P0n2XWaB3SjacAvsnvnd-8" target="P0n2XWaB3SjacAvsnvnd-6">
          <mxGeometry width="50" height="50" relative="1" as="geometry">
            <mxPoint x="300" y="250" as="sourcePoint" />
            <mxPoint x="350" y="200" as="targetPoint" />
          </mxGeometry>
        </mxCell>
      </root>
    </mxGraphModel>
  </diagram>
</mxfile>
